<?xml version="1.0" standalone="no"?>
<!DOCTYPE svg PUBLIC "-//W3C//DTD SVG 20010904//EN"
 "http://www.w3.org/TR/2001/REC-SVG-20010904/DTD/svg10.dtd">
<svg version="1.0" xmlns="http://www.w3.org/2000/svg"
 width="1280.000000pt" height="1146.000000pt" viewBox="0 0 1280.000000 1146.000000"
 preserveAspectRatio="xMidYMid meet">
<metadata>
Created by potrace 1.15, written by Peter Selinger 2001-2017
</metadata>
<g transform="translate(0.000000,1146.000000) scale(0.100000,-0.100000)"
fill="#ff9800" stroke="none">
<path d="M5146 11237 c-8 -29 -31 -113 -51 -187 -20 -74 -49 -182 -65 -240
-16 -58 -61 -224 -100 -370 -39 -146 -84 -312 -100 -370 -16 -58 -60 -222 -99
-365 -38 -143 -205 -762 -371 -1375 -166 -613 -333 -1232 -371 -1375 -39 -143
-83 -307 -99 -365 -16 -58 -61 -224 -100 -370 -39 -146 -84 -312 -100 -370
-16 -58 -61 -224 -100 -370 -39 -146 -84 -312 -100 -370 -16 -58 -61 -224
-100 -370 -39 -146 -84 -312 -100 -370 -16 -58 -60 -222 -99 -365 -82 -306
-787 -2916 -834 -3087 -25 -93 -35 -117 -47 -113 -14 4 -497 133 -1558 417
-249 66 -455 118 -458 115 -11 -11 -122 -432 -115 -438 3 -3 247 -70 541 -148
294 -79 844 -226 1222 -327 377 -101 692 -184 700 -184 9 0 37 90 87 275 l74
275 473 0 474 0 36 -72 c158 -314 444 -559 774 -663 101 -31 249 -55 345 -55
465 1 927 305 1130 743 l40 86 1293 1 1292 0 0 27 c0 24 3 22 31 -23 212 -335
579 -592 970 -679 101 -23 331 -31 438 -16 355 51 707 245 933 516 l63 75 852
0 853 0 0 2235 0 2235 -1050 0 -1050 0 0 2700 0 2700 -2223 0 -2222 0 -34
-122 c-19 -68 -60 -215 -91 -328 -71 -253 -169 -605 -261 -935 -39 -137 -92
-329 -119 -425 -27 -96 -81 -290 -120 -430 -39 -140 -93 -334 -120 -430 -50
-179 -193 -693 -410 -1470 -217 -777 -360 -1291 -410 -1470 -27 -96 -80 -287
-119 -425 -210 -755 -196 -712 -344 -1075 -77 -190 -143 -349 -147 -353 -8 -9
-637 -33 -645 -25 -3 3 8 52 24 109 16 57 57 208 91 334 34 127 81 302 105
390 24 88 76 279 115 425 39 146 93 346 120 445 113 416 261 965 450 1665 111
410 233 862 271 1005 39 143 93 343 120 445 28 102 63 232 79 290 16 58 61
224 100 370 39 146 84 312 100 370 16 58 54 197 84 310 30 113 157 581 281
1040 124 459 225 840 225 846 0 14 -22 21 -260 84 -85 22 -160 43 -167 45 -7
2 -18 -17 -27 -48z m5094 -3567 l0 -2470 -365 0 -365 0 0 1328 c0 1147 -2
1339 -15 1415 -37 207 -117 391 -258 586 l-60 83 37 257 c53 373 61 466 48
569 -6 48 -20 113 -32 144 -27 73 -96 150 -163 182 -132 64 -413 87 -570 46
-125 -31 -202 -74 -287 -160 -85 -85 -128 -158 -162 -275 -32 -111 -32 -322 0
-440 56 -209 168 -400 313 -535 l37 -35 -98 -520 c-54 -286 -102 -540 -107
-565 l-9 -45 -922 -3 -922 -2 0 -275 0 -275 48 0 c26 0 191 -4 367 -10 176 -5
545 -14 820 -20 275 -7 505 -13 510 -15 7 -2 3 -102 -13 -306 -12 -167 -24
-309 -26 -314 -3 -7 -181 -19 -487 -34 -900 -42 -910 -43 -1073 -119 -149 -71
-237 -179 -285 -352 -20 -72 -21 -97 -21 -797 l0 -723 -645 0 c-511 0 -643 3
-640 13 2 6 31 109 64 227 33 118 92 330 131 470 39 140 93 334 120 430 27 96
158 564 290 1040 132 476 263 944 290 1040 27 96 81 290 120 430 39 140 93
334 120 430 27 96 81 290 120 430 39 140 93 334 120 430 27 96 81 290 120 430
39 140 98 350 130 465 32 116 64 230 70 255 7 25 14 48 17 53 2 4 821 7 1819
7 l1814 0 0 -2470z m-2548 -2649 l246 -6 -295 -512 -296 -513 -239 0 -238 0 0
520 0 520 288 -1 c158 -1 398 -5 534 -8z m4643 -2056 l0 -1770 -497 -3 c-274
-1 -498 2 -498 6 0 5 7 31 15 59 8 28 22 95 30 150 49 327 -33 675 -228 970
-215 323 -532 553 -894 648 -443 115 -916 -7 -1288 -333 -381 -334 -575 -839
-500 -1297 8 -49 15 -93 15 -97 0 -5 -526 -8 -1170 -8 l-1170 0 0 43 c0 62
-26 187 -60 288 -124 372 -436 685 -810 812 -129 44 -224 59 -370 60 -200 0
-338 -32 -525 -123 -250 -121 -476 -344 -602 -595 -65 -129 -123 -346 -123
-461 l0 -54 -366 0 c-343 0 -365 1 -360 18 3 9 87 318 186 687 100 368 183
671 184 673 2 1 248 10 547 20 l544 17 65 160 c36 88 115 280 175 428 l109
267 1436 0 1436 0 349 605 350 605 2010 -2 2010 -3 0 -1770z m-2308 -366 c416
-56 780 -382 884 -794 29 -116 31 -275 5 -390 -87 -378 -391 -692 -772 -797
-111 -30 -316 -31 -426 0 -188 51 -348 145 -487 283 -139 140 -232 300 -283
487 -30 110 -30 315 0 426 26 94 94 241 152 325 161 238 433 414 705 457 104
16 128 16 222 3z m-4954 -738 c219 -76 390 -253 453 -467 90 -308 -147 -680
-491 -769 -263 -68 -572 94 -704 370 -48 100 -62 158 -62 256 0 99 14 155 64
259 34 70 57 101 132 175 109 110 223 173 355 199 52 10 196 -3 253 -23z"/>
</g>
</svg>
