<?xml version="1.0" encoding="iso-8859-1"?>
<!-- Generator: Adobe Illustrator 19.2.1, SVG Export Plug-In . SVG Version: 6.00 Build 0)  -->
<svg version="1.1" xmlns="http://www.w3.org/2000/svg" xmlns:xlink="http://www.w3.org/1999/xlink" x="0px" y="0px"
	 viewBox="0 0 281.859 256.22" style="enable-background:new 0 0 281.859 256.22;" xml:space="preserve" width="256px" height="234px">
<g id="&#x421;&#x43B;&#x43E;&#x439;_1_1_">
	<polyline style="fill:none;stroke:#226594;stroke-width:2.5;stroke-linejoin:round;stroke-miterlimit:10;" points="1.42,40.828 
		214.481,163.397 214.481,255.208 	"/>
	
		<line style="fill:none;stroke:#226594;stroke-width:2.5;stroke-linejoin:round;stroke-miterlimit:10;" x1="214.401" y1="163.657" x2="281.022" y2="124.826"/>
	<polyline style="fill:none;stroke:#226594;stroke-width:2.5;stroke-linejoin:round;stroke-miterlimit:10;" points="0.628,40.661 
		68.522,1.25 280.609,124.1 280.609,217.991 214.649,254.948 214.644,254.97 1.557,132.654 1.42,39.798 	"/>
	<polygon style="fill:none;stroke:#226594;stroke-width:1.5;stroke-linejoin:round;stroke-miterlimit:10;" points="187.002,230.846 
		206.524,242.091 206.524,222.622 206.419,222.626 	"/>
	<polygon style="fill:none;stroke:#226594;stroke-width:1.5;stroke-linejoin:round;stroke-miterlimit:10;" points="274.38,166.208 
		274.38,213.396 220.703,242.429 220.703,168.158 257.71,146.745 257.799,147.068 	"/>
	<polygon style="fill:none;stroke:#226594;stroke-width:1.5;stroke-linejoin:round;stroke-miterlimit:10;" points="264.327,143.32 
		264.362,142.896 274.38,137.099 274.38,156.766 	"/>
	<path style="fill:none;stroke:#226594;stroke-width:1.5;stroke-linejoin:round;stroke-miterlimit:10;" d="M265.265,142.163
		c3.159,1.174,6.893,3.602,9.17,6.503"/>
	<path style="fill:none;stroke:#226594;stroke-width:1.5;stroke-linejoin:round;stroke-miterlimit:10;" d="M220.794,177.352
		c1.972-4.531,4.817-9.665,7.336-13.582"/>
	<path style="fill:none;stroke:#226594;stroke-width:1.5;stroke-linejoin:round;stroke-miterlimit:10;" d="M227.834,238.227
		c-2.622-1.169-4.958-2.995-6.932-5.415"/>
	<path style="fill:none;stroke:#226594;stroke-width:1.5;stroke-linejoin:round;stroke-miterlimit:10;" d="M274.483,203.312
		c-2.041,4.823-4.489,9.429-7.254,13.648"/>
	<g>
		<path style="fill:none;stroke:#226594;stroke-width:1.5;stroke-linejoin:round;stroke-miterlimit:10;" d="M164.534,125.113
			c5.274-7.532,11.764-14.024,18.533-17.68c5.603-3.025,11.149-4.54,15.393-4.209"/>
		<path style="fill:none;stroke:#226594;stroke-width:1.5;stroke-linejoin:round;stroke-miterlimit:10;" d="M155.652,196.55
			c-4.521-5.186-6.183-13.841-6.183-25.281c0-10.488,2.598-21.554,6.967-31.624"/>
	</g>
	<g>
		<path style="fill:none;stroke:#226594;stroke-width:1.5;stroke-linejoin:round;stroke-miterlimit:10;" d="M182.989,135.917
			c5.274-7.532,11.764-14.024,18.533-17.68c5.932-3.203,11.828-4.936,16.271-4.345"/>
		<path style="fill:none;stroke:#226594;stroke-width:1.5;stroke-linejoin:round;stroke-miterlimit:10;" d="M174.108,207.353
			c-4.521-5.186-6.183-13.841-6.183-25.281c0-10.488,2.598-21.554,6.967-31.624"/>
	</g>
	<g>
		<path style="fill:none;stroke:#226594;stroke-width:1.5;stroke-linejoin:round;stroke-miterlimit:10;" d="M59.676,63.577
			c5.274-7.532,11.764-14.024,18.533-17.68c5.603-3.025,10.271-4.608,14.515-4.277"/>
		<path style="fill:none;stroke:#226594;stroke-width:1.5;stroke-linejoin:round;stroke-miterlimit:10;" d="M50.795,135.014
			c-4.521-5.186-6.183-13.841-6.183-25.281c0-10.488,2.598-21.554,6.967-31.624"/>
	</g>
	<g>
		<path style="fill:none;stroke:#226594;stroke-width:1.5;stroke-linejoin:round;stroke-miterlimit:10;" d="M78.131,74.38
			c5.274-7.532,11.764-14.024,18.533-17.68c5.932-3.203,10.817-4.79,15.26-4.199"/>
		<path style="fill:none;stroke:#226594;stroke-width:1.5;stroke-linejoin:round;stroke-miterlimit:10;" d="M69.25,145.817
			c-4.521-5.186-6.183-13.841-6.183-25.281c0-10.488,2.598-21.554,6.967-31.624"/>
	</g>
	<path style="fill:none;stroke:#226594;stroke-width:1.5;stroke-linejoin:round;stroke-miterlimit:10;" d="M14.546,92.859
		c-2.076,0.209-4.025-0.036-5.8-0.698"/>
	<path style="fill:none;stroke:#226594;stroke-width:1.5;stroke-linejoin:round;stroke-miterlimit:10;" d="M21.598,61.296
		c-4.414,10.06-7.045,21.145-7.045,31.646c0,5.647,0.761,10.642,2.151,14.876c0,0,2.325,9.141,9.834,13.481"/>
	<path style="fill:none;stroke:#226594;stroke-width:1.5;stroke-linejoin:round;stroke-miterlimit:10;" d="M251.781,133.2
		l-72.389-41.043L98.608,45.296l-28.746-17.13c-5.591-2.777-14.474-2.51-22.046,1.579c-6.889,3.72-13.288,10.024-18.597,17.768"/>
	<polyline style="fill:none;stroke:#226594;stroke-width:1.5;stroke-linejoin:round;stroke-miterlimit:10;" points="
		194.258,218.741 26.539,121.298 24.848,120.316 24.848,120.316 	"/>
	
		<line style="fill:none;stroke:#226594;stroke-width:1.5;stroke-linejoin:round;stroke-miterlimit:10;" x1="206.636" y1="225.999" x2="203.317" y2="223.973"/>
	<polygon style="fill:none;stroke:#226594;stroke-width:1.5;stroke-linejoin:round;stroke-miterlimit:10;" points="266.616,124.271 
		215.301,154.317 15.29,39.692 15.375,39.537 67.948,8.658 	"/>
	<polygon style="fill:none;stroke:#226594;stroke-width:1.5;stroke-linejoin:round;stroke-miterlimit:10;" points="25.008,137.266 
		8.03,127.451 8.03,105.958 7.918,104.832 25.022,137.241 	"/>
	<polygon style="fill:none;stroke:#226594;stroke-width:1.5;stroke-linejoin:round;stroke-miterlimit:10;" points="34.25,142.418 
		8.368,94.479 8.368,53.18 189.186,158.14 206.524,168.158 206.524,213.339 178.493,225.89 34.286,142.629 	"/>
	<polyline style="fill:none;stroke:#226594;stroke-width:1.5;stroke-linejoin:round;stroke-miterlimit:10;" points="67.948,8.658 
		67.948,12.917 18.479,42.085 	"/>
	<polyline style="fill:none;stroke:#226594;stroke-width:1.5;stroke-linejoin:round;stroke-miterlimit:10;" points="71.769,28.671 
		71.769,15.133 262.592,126.008 	"/>
	
		<line style="fill:none;stroke:#226594;stroke-width:1.5;stroke-linejoin:round;stroke-miterlimit:10;" x1="64.877" y1="14.272" x2="64.877" y2="27.318"/>
	
		<line style="fill:none;stroke:#226594;stroke-width:1.5;stroke-linejoin:round;stroke-miterlimit:10;" x1="67.948" y1="12.917" x2="67.948" y2="27.501"/>
	<path style="fill:none;stroke:#226594;stroke-width:1.5;stroke-linejoin:round;stroke-miterlimit:10;" d="M270.836,178.16
		c0,17.497-10.429,37.313-23.295,44.26c-12.865,6.947-23.295-1.605-23.295-19.102s10.429-37.313,23.295-44.26
		C260.407,152.111,270.836,160.663,270.836,178.16z"/>
</g>
<g id="&#x421;&#x43B;&#x43E;&#x439;_1">
</g>
</svg>
